<?xml version="1.0" standalone="no"?>
<!DOCTYPE svg PUBLIC "-//W3C//DTD SVG 20010904//EN"
 "http://www.w3.org/TR/2001/REC-SVG-20010904/DTD/svg10.dtd">
<svg version="1.0" xmlns="http://www.w3.org/2000/svg"
 width="1415.000000pt" height="1415.000000pt" viewBox="0 0 1415.000000 1415.000000"
 preserveAspectRatio="xMidYMid meet">
<metadata>
Created by potrace 1.11, written by Peter Selinger 2001-2013
</metadata>
<g transform="translate(0.000000,1415.000000) scale(0.100000,-0.100000)"
fill="#000000" stroke="none">
<path d="M1380 14117 c25 -12 98 -47 163 -79 101 -49 192 -79 309 -102 13 -2
43 -9 68 -15 25 -7 56 -14 70 -17 126 -26 779 -200 1030 -274 283 -83 508
-152 522 -160 10 -6 23 -10 30 -10 44 0 1247 -421 1403 -491 11 -4 116 -47
232 -94 201 -80 478 -195 567 -235 23 -10 102 -45 177 -78 156 -69 198 -89
324 -147 50 -23 133 -61 185 -85 100 -47 777 -387 870 -438 30 -17 91 -49 135
-72 163 -86 498 -278 765 -438 276 -165 302 -182 527 -328 67 -43 130 -83 140
-89 10 -5 44 -28 76 -50 32 -22 73 -49 91 -60 18 -11 56 -37 84 -57 29 -21 56
-38 61 -38 5 0 11 -4 13 -8 2 -5 32 -28 68 -52 218 -147 663 -477 945 -700
173 -137 385 -308 395 -320 3 -3 52 -45 110 -95 110 -94 251 -217 310 -271 19
-18 46 -42 60 -54 110 -94 450 -422 685 -660 152 -153 171 -173 330 -345 156
-170 192 -209 215 -235 12 -14 31 -36 43 -50 12 -14 49 -57 82 -95 33 -39 62
-72 66 -75 3 -3 29 -34 58 -70 30 -36 57 -67 60 -70 4 -3 37 -43 75 -90 38
-47 73 -89 78 -95 4 -5 8 1074 8 2410 -1 2049 -3 2431 -15 2495 -21 108 -29
137 -60 215 -142 352 -442 595 -825 669 -65 13 -469 15 -2915 13 -1562 -2
-2856 -6 -2875 -10 -79 -18 -159 -42 -220 -67 l-65 -26 -60 19 c-323 101 -473
146 -660 201 -165 48 -388 110 -435 121 -8 2 -67 18 -130 34 -63 17 -227 58
-365 92 -137 33 -266 64 -285 69 -53 14 -248 58 -305 70 -27 5 -93 19 -145 30
-129 28 -136 29 -167 35 -16 3 -50 10 -78 16 -27 6 -61 13 -75 15 -14 2 -70
13 -125 24 -55 10 -140 26 -190 35 -134 23 -149 25 -165 30 -8 2 -37 7 -65 10
-27 4 -57 8 -65 10 -8 3 -33 7 -55 10 -22 4 -51 8 -65 10 -42 7 -163 26 -190
30 -83 13 -189 28 -210 30 -14 2 -43 5 -65 8 -52 8 -186 25 -250 32 -27 3 -66
7 -85 10 -51 5 -147 15 -210 20 l-55 4 45 -22z"/>
<path d="M5220 10060 c0 -617 -4 -1080 -9 -1080 -5 0 -85 18 -177 40 -275 65
-633 142 -724 155 -24 4 -47 8 -51 10 -4 3 -119 25 -314 59 -81 15 -144 26
-170 29 -16 3 -59 10 -95 16 -159 26 -259 41 -305 46 -27 3 -61 8 -75 10 -28
6 -78 13 -130 19 -19 2 -55 7 -80 10 -59 7 -209 24 -285 31 -33 4 -76 8 -95
11 -50 5 794 -411 884 -436 39 -11 94 -27 121 -35 28 -8 97 -28 155 -45 58
-17 113 -33 124 -35 54 -13 655 -204 851 -271 533 -183 1275 -472 1635 -637
30 -14 96 -43 145 -65 376 -164 1075 -512 1460 -728 22 -13 67 -37 100 -54 33
-18 67 -39 76 -46 8 -8 19 -14 23 -14 23 0 644 -376 906 -549 63 -41 123 -80
133 -86 66 -39 577 -397 752 -528 249 -187 627 -486 720 -569 8 -7 20 -18 27
-23 29 -22 314 -269 323 -279 6 -6 48 -45 95 -86 47 -41 112 -100 145 -131 33
-31 80 -76 105 -99 86 -80 366 -358 485 -481 103 -107 184 -194 389 -419 23
-25 84 -94 136 -155 52 -60 97 -112 100 -115 3 -3 24 -27 45 -55 22 -27 43
-53 48 -56 4 -3 18 -20 32 -39 43 -59 27 -25 -43 92 -155 256 -215 351 -408
643 -309 469 -681 979 -1059 1450 -174 217 -457 560 -475 575 -3 3 -44 50 -90
105 -47 55 -104 120 -126 145 -23 25 -85 95 -139 155 -85 95 -186 206 -313
344 -432 467 -995 1028 -1541 1536 -36 33 -74 69 -86 80 -12 11 -61 56 -110
100 -49 44 -116 105 -149 136 -34 31 -124 111 -201 179 -77 68 -171 151 -210
185 -38 34 -104 91 -145 126 -41 35 -77 66 -80 69 -3 3 -34 30 -70 60 -36 30
-67 57 -70 60 -3 3 -99 84 -215 180 -115 96 -248 206 -295 245 -47 39 -152
124 -235 190 -82 66 -152 122 -155 125 -3 3 -68 55 -145 115 -77 60 -147 115
-155 122 -33 27 -343 265 -460 353 -69 52 -129 99 -135 103 -32 26 -363 270
-377 278 -17 9 -18 -45 -18 -1071z"/>
<path d="M5220 6281 c0 -543 -3 -831 -10 -831 -5 0 -79 14 -162 31 -138 27
-187 36 -283 54 -16 3 -46 8 -65 12 -49 9 -60 11 -100 17 -19 3 -46 8 -60 10
-73 13 -280 46 -315 50 -53 7 -114 16 -145 21 -29 6 -74 12 -145 20 -27 3 -84
10 -125 15 -337 42 -349 58 135 -184 237 -119 471 -237 520 -264 337 -180 350
-186 580 -263 254 -85 429 -146 460 -159 11 -5 112 -43 225 -85 568 -212 1116
-452 1705 -746 415 -207 455 -228 745 -391 515 -290 959 -570 1415 -892 160
-113 484 -352 495 -365 3 -3 32 -26 65 -51 33 -24 65 -49 71 -55 6 -5 26 -21
44 -35 97 -72 553 -459 660 -560 9 -8 59 -53 110 -100 106 -95 598 -584 705
-701 39 -41 95 -102 125 -135 30 -33 98 -109 150 -169 52 -61 97 -112 100
-115 4 -3 48 -56 99 -117 90 -110 104 -123 115 -104 7 11 -369 567 -461 681
-7 8 -65 87 -130 175 -66 88 -126 169 -136 180 -16 19 -120 154 -175 225 -116
152 -622 755 -769 917 -16 18 -45 50 -63 70 -71 80 -217 241 -276 303 -33 36
-94 101 -135 144 -303 324 -879 899 -1165 1162 -17 16 -78 72 -135 125 -57 53
-131 121 -163 150 -32 30 -71 65 -86 79 -45 41 -102 92 -155 139 -40 36 -147
130 -209 186 -6 6 -41 35 -76 65 -36 30 -67 57 -70 60 -20 22 -305 262 -665
560 -94 78 -638 513 -715 572 -19 15 -102 79 -185 142 -274 212 -399 306 -700
527 -183 134 -572 414 -617 443 l-28 18 0 -831z"/>
<path d="M5221 2383 c1 -1506 0 -1479 51 -1633 64 -196 191 -380 353 -513 70
-57 209 -136 285 -162 3 -1 17 -7 32 -13 15 -6 54 -18 85 -26 32 -8 72 -18 88
-23 17 -4 847 -9 1845 -10 l1815 -3 -75 76 c-100 101 -490 488 -561 555 -259
248 -463 435 -753 694 -44 39 -84 75 -90 80 -20 18 -150 131 -180 156 -16 13
-34 29 -40 34 -6 6 -45 39 -86 75 -67 57 -103 88 -209 177 -14 12 -69 57 -121
101 -88 74 -444 364 -521 423 -19 15 -93 73 -165 130 -73 57 -196 153 -275
214 -79 60 -148 113 -154 118 -15 12 -239 179 -270 202 -65 47 -361 265 -370
273 -5 4 -41 30 -80 57 -38 26 -92 65 -120 85 -44 33 -152 108 -408 287 l-77
55 1 -1409z"/>
</g>
</svg>
